<svg xmlns="http://www.w3.org/2000/svg" width="6650" height="152" fill="none"><g clip-path="url(#a)"><g filter="url(#b)"><path stroke="#963FFF" stroke-linecap="round" stroke-width="2" d="M1.703 101.624s82.463-37.17 144-36.856c71.688.365 88.885 46.606 160 51.828 102.062 7.495 135.682-58.838 238-65.073 139.636-8.509 206.113 104.432 336 73.711 71.271-16.856 64.755-73.079 140.997-79.47 86.18-7.223 99.44 76.32 186 70.832 78.63-4.984 75.69-63.81 151-77.742 125.27-23.176 306 81.197 306 81.197"/></g><path stroke="#963FFF" stroke-linecap="round" stroke-width="2" d="M1.703 101.624s82.463-37.17 144-36.856c71.688.365 88.885 46.606 160 51.828 102.062 7.495 135.682-58.838 238-65.073 139.636-8.509 206.113 104.432 336 73.711 71.271-16.856 64.755-73.079 140.997-79.47 86.18-7.223 99.44 76.32 186 70.832 78.63-4.984 75.69-63.81 151-77.742 125.27-23.176 306 81.197 306 81.197"/><g filter="url(#c)"><path stroke="#963FFF" stroke-linecap="round" stroke-width="2" d="M3324.7 101.624s82.47-37.17 144-36.856c71.69.365 88.89 46.606 160 51.828 102.07 7.495 135.69-58.838 238-65.073 139.64-8.509 206.12 104.432 336 73.711 71.27-16.856 64.76-73.079 141-79.47 86.18-7.223 99.44 76.32 186 70.832 78.63-4.984 75.69-63.81 151-77.742 125.27-23.176 306 81.197 306 81.197"/></g><path stroke="#963FFF" stroke-linecap="round" stroke-width="2" d="M3324.7 101.624s82.47-37.17 144-36.856c71.69.365 88.89 46.606 160 51.828 102.07 7.495 135.69-58.838 238-65.073 139.64-8.509 206.12 104.432 336 73.711 71.27-16.856 64.76-73.079 141-79.47 86.18-7.223 99.44 76.32 186 70.832 78.63-4.984 75.69-63.81 151-77.742 125.27-23.176 306 81.197 306 81.197"/><g filter="url(#d)"><path stroke="#963FFF" stroke-linecap="round" stroke-width="2" d="M3325.7 101.624s-82.46-37.17-144-36.856c-71.68.365-88.88 46.606-160 51.828-102.06 7.495-135.68-58.838-238-65.073-139.63-8.509-206.11 104.432-336 73.711-71.27-16.856-64.75-73.079-141-79.47-86.17-7.223-99.44 76.32-186 70.832-78.62-4.984-75.69-63.81-151-77.742-125.27-23.176-306 81.197-306 81.197"/></g><path stroke="#963FFF" stroke-linecap="round" stroke-width="2" d="M3325.7 101.624s-82.46-37.17-144-36.856c-71.68.365-88.88 46.606-160 51.828-102.06 7.495-135.68-58.838-238-65.073-139.63-8.509-206.11 104.432-336 73.711-71.27-16.856-64.75-73.079-141-79.47-86.17-7.223-99.44 76.32-186 70.832-78.62-4.984-75.69-63.81-151-77.742-125.27-23.176-306 81.197-306 81.197"/><g filter="url(#e)"><path stroke="#963FFF" stroke-linecap="round" stroke-width="2" d="M6648.7 101.624s-82.46-37.17-144-36.856c-71.68.365-88.88 46.606-160 51.828-102.06 7.495-135.68-58.838-238-65.073-139.63-8.509-206.11 104.432-336 73.711-71.27-16.856-64.75-73.079-141-79.47-86.17-7.223-99.44 76.32-186 70.832-78.62-4.984-75.69-63.81-151-77.742-125.27-23.176-306 81.197-306 81.197"/></g><path stroke="#963FFF" stroke-linecap="round" stroke-width="2" d="M6648.7 101.624s-82.46-37.17-144-36.856c-71.68.365-88.88 46.606-160 51.828-102.06 7.495-135.68-58.838-238-65.073-139.63-8.509-206.11 104.432-336 73.711-71.27-16.856-64.75-73.079-141-79.47-86.17-7.223-99.44 76.32-186 70.832-78.62-4.984-75.69-63.81-151-77.742-125.27-23.176-306 81.197-306 81.197"/><g filter="url(#f)"><path stroke="#2E42FF" stroke-linecap="round" stroke-width="2" d="M1.504 68.923s83.099 35.725 144.621 34.337c71.671-1.616 88.059-48.15 159.072-54.613 101.916-9.275 136.688 56.462 239.099 60.91 139.763 6.071 204.259-108.013 334.662-79.564 71.555 15.61 66.021 71.938 142.362 76.997 86.29 5.718 98.1-78.043 184.74-74.067 78.7 3.612 76.79 62.479 152.33 75.095 125.66 20.987 304.54-86.525 304.54-86.525"/></g><path stroke="#2E42FF" stroke-linecap="round" stroke-width="2" d="M1.504 68.923s83.099 35.725 144.621 34.337c71.671-1.616 88.059-48.15 159.072-54.613 101.916-9.275 136.688 56.462 239.099 60.91 139.763 6.071 204.259-108.013 334.662-79.564 71.555 15.61 66.021 71.938 142.362 76.997 86.29 5.718 98.1-78.043 184.74-74.067 78.7 3.612 76.79 62.479 152.33 75.095 125.66 20.987 304.54-86.525 304.54-86.525"/><g filter="url(#g)"><path stroke="#2E42FF" stroke-linecap="round" stroke-width="2" d="M3324.5 68.923s83.1 35.725 144.63 34.337c71.67-1.616 88.05-48.15 159.07-54.613 101.91-9.275 136.69 56.462 239.1 60.91 139.76 6.071 204.26-108.013 334.66-79.564 71.55 15.61 66.02 71.938 142.36 76.997 86.29 5.718 98.1-78.043 184.74-74.067 78.7 3.612 76.79 62.479 152.33 75.095 125.66 20.987 304.54-86.525 304.54-86.525"/></g><path stroke="#2E42FF" stroke-linecap="round" stroke-width="2" d="M3324.5 68.923s83.1 35.725 144.63 34.337c71.67-1.616 88.05-48.15 159.07-54.613 101.91-9.275 136.69 56.462 239.1 60.91 139.76 6.071 204.26-108.013 334.66-79.564 71.55 15.61 66.02 71.938 142.36 76.997 86.29 5.718 98.1-78.043 184.74-74.067 78.7 3.612 76.79 62.479 152.33 75.095 125.66 20.987 304.54-86.525 304.54-86.525"/><g filter="url(#h)"><path stroke="#2E42FF" stroke-linecap="round" stroke-width="2" d="M3323.9 68.923s-83.1 35.725-144.62 34.337c-71.67-1.616-88.06-48.15-159.07-54.613-101.92-9.275-136.69 56.462-239.1 60.91-139.76 6.071-204.26-108.013-334.66-79.564-71.56 15.61-66.02 71.938-142.37 76.997-86.29 5.718-98.09-78.043-184.73-74.067-78.7 3.612-76.8 62.479-152.34 75.095-125.65 20.987-304.53-86.525-304.53-86.525"/></g><path stroke="#2E42FF" stroke-linecap="round" stroke-width="2" d="M3323.9 68.923s-83.1 35.725-144.62 34.337c-71.67-1.616-88.06-48.15-159.07-54.613-101.92-9.275-136.69 56.462-239.1 60.91-139.76 6.071-204.26-108.013-334.66-79.564-71.56 15.61-66.02 71.938-142.37 76.997-86.29 5.718-98.09-78.043-184.73-74.067-78.7 3.612-76.8 62.479-152.34 75.095-125.65 20.987-304.53-86.525-304.53-86.525"/><g filter="url(#i)"><path stroke="#2E42FF" stroke-linecap="round" stroke-width="2" d="M6646.9 68.923s-83.1 35.725-144.62 34.337c-71.67-1.616-88.06-48.15-159.07-54.613-101.92-9.275-136.69 56.462-239.1 60.91-139.76 6.071-204.26-108.013-334.66-79.564-71.56 15.61-66.02 71.938-142.37 76.997-86.29 5.718-98.09-78.043-184.73-74.067-78.71 3.612-76.8 62.479-152.34 75.095-125.65 20.987-304.54-86.525-304.54-86.525"/></g><path stroke="#2E42FF" stroke-linecap="round" stroke-width="2" d="M6646.9 68.923s-83.1 35.725-144.62 34.337c-71.67-1.616-88.06-48.15-159.07-54.613-101.92-9.275-136.69 56.462-239.1 60.91-139.76 6.071-204.26-108.013-334.66-79.564-71.56 15.61-66.02 71.938-142.37 76.997-86.29 5.718-98.09-78.043-184.73-74.067-78.71 3.612-76.8 62.479-152.34 75.095-125.65 20.987-304.54-86.525-304.54-86.525"/></g><defs><filter id="b" width="1704" height="137.049" x="-19.297" y="14.496" color-interpolation-filters="sRGB" filterUnits="userSpaceOnUse"><feFlood flood-opacity="0" result="BackgroundImageFix"/><feBlend in="SourceGraphic" in2="BackgroundImageFix" result="shape"/><feGaussianBlur result="effect1_foregroundBlur_1190_5875" stdDeviation="10"/></filter><filter id="c" width="1704" height="137.049" x="3303.7" y="14.496" color-interpolation-filters="sRGB" filterUnits="userSpaceOnUse"><feFlood flood-opacity="0" result="BackgroundImageFix"/><feBlend in="SourceGraphic" in2="BackgroundImageFix" result="shape"/><feGaussianBlur result="effect1_foregroundBlur_1190_5875" stdDeviation="10"/></filter><filter id="d" width="1704" height="137.049" x="1642.7" y="14.496" color-interpolation-filters="sRGB" filterUnits="userSpaceOnUse"><feFlood flood-opacity="0" result="BackgroundImageFix"/><feBlend in="SourceGraphic" in2="BackgroundImageFix" result="shape"/><feGaussianBlur result="effect1_foregroundBlur_1190_5875" stdDeviation="10"/></filter><filter id="e" width="1704" height="137.049" x="4965.7" y="14.496" color-interpolation-filters="sRGB" filterUnits="userSpaceOnUse"><feFlood flood-opacity="0" result="BackgroundImageFix"/><feBlend in="SourceGraphic" in2="BackgroundImageFix" result="shape"/><feGaussianBlur result="effect1_foregroundBlur_1190_5875" stdDeviation="10"/></filter><filter id="f" width="1703.43" height="131.242" x="-19.496" y=".492" color-interpolation-filters="sRGB" filterUnits="userSpaceOnUse"><feFlood flood-opacity="0" result="BackgroundImageFix"/><feBlend in="SourceGraphic" in2="BackgroundImageFix" result="shape"/><feGaussianBlur result="effect1_foregroundBlur_1190_5875" stdDeviation="10"/></filter><filter id="g" width="1703.43" height="131.242" x="3303.5" y=".492" color-interpolation-filters="sRGB" filterUnits="userSpaceOnUse"><feFlood flood-opacity="0" result="BackgroundImageFix"/><feBlend in="SourceGraphic" in2="BackgroundImageFix" result="shape"/><feGaussianBlur result="effect1_foregroundBlur_1190_5875" stdDeviation="10"/></filter><filter id="h" width="1703.42" height="131.242" x="1641.48" y=".492" color-interpolation-filters="sRGB" filterUnits="userSpaceOnUse"><feFlood flood-opacity="0" result="BackgroundImageFix"/><feBlend in="SourceGraphic" in2="BackgroundImageFix" result="shape"/><feGaussianBlur result="effect1_foregroundBlur_1190_5875" stdDeviation="10"/></filter><filter id="i" width="1703.43" height="131.242" x="4964.47" y=".492" color-interpolation-filters="sRGB" filterUnits="userSpaceOnUse"><feFlood flood-opacity="0" result="BackgroundImageFix"/><feBlend in="SourceGraphic" in2="BackgroundImageFix" result="shape"/><feGaussianBlur result="effect1_foregroundBlur_1190_5875" stdDeviation="10"/></filter><clipPath id="a"><path fill="#fff" d="M0 0h6650v152H0z"/></clipPath></defs></svg>